<?xml version="1.0" encoding="UTF-8"?><svg id="Capa_2" xmlns="http://www.w3.org/2000/svg" viewBox="0 0 651.97 620.22"><defs><style>.cls-1{fill:#273f92;}.cls-2{fill:none;stroke:#292118;stroke-miterlimit:10;stroke-width:2px;}</style></defs><g id="Capa_1-2"><g><polygon class="cls-1" points="646.36 310.11 440.52 347.34 585.14 498.49 396.68 407.55 424.99 614.86 325.99 430.48 226.99 614.86 255.29 407.55 66.84 498.49 211.46 347.34 5.62 310.11 211.46 272.87 66.84 121.73 255.29 212.67 226.99 5.36 325.99 189.74 424.99 5.36 396.68 212.67 585.14 121.73 440.51 272.87 646.36 310.11"/><polygon class="cls-2" points="646.36 310.11 440.52 347.34 585.14 498.49 396.68 407.55 424.99 614.86 325.99 430.48 226.99 614.86 255.29 407.55 66.84 498.49 211.46 347.34 5.62 310.11 211.46 272.87 66.84 121.73 255.29 212.67 226.99 5.36 325.99 189.74 424.99 5.36 396.68 212.67 585.14 121.73 440.51 272.87 646.36 310.11"/></g></g></svg>