<?xml version="1.0" encoding="UTF-8"?><svg id="Capa_2" xmlns="http://www.w3.org/2000/svg" viewBox="0 0 162 705.18"><defs><style>.cls-1{fill:none;stroke:#10100f;stroke-linecap:round;stroke-miterlimit:10;stroke-width:40px;}</style></defs><g id="Capa_1-2"><path class="cls-1" d="M142,20c0,25.58-122,25.58-122,51.16s122,25.58,122,51.16c0,25.58-122,25.58-122,51.16,0,25.58,122,25.58,122,51.17s-122,25.58-122,51.17,122,25.58,122,51.17-122,25.58-122,51.17c0,25.58,122,25.58,122,51.17,0,25.58-122,25.58-122,51.17,0,25.58,122,25.58,122,51.17,0,25.58-122,25.58-122,51.17s122,25.59,122,51.17-122,25.59-122,51.17"/></g></svg>